<svg width="60" height="61" viewBox="0 0 60 61" fill="none" xmlns="http://www.w3.org/2000/svg">
<g clip-path="url(#clip0_118_137828)">
<path opacity="0.2" d="M40 1.37402H20C9.23045 1.37402 0.5 10.1045 0.5 20.874V40.874C0.5 51.6436 9.23045 60.374 20 60.374H40C50.7696 60.374 59.5 51.6436 59.5 40.874V20.874C59.5 10.1045 50.7696 1.37402 40 1.37402Z" stroke="#404152"/>
<mask id="mask0_118_137828" style="mask-type:luminance" maskUnits="userSpaceOnUse" x="14" y="14" width="32" height="33">
<path d="M46 14.874H14V46.874H46V14.874Z" fill="white"/>
</mask>
<g mask="url(#mask0_118_137828)">
<path fill-rule="evenodd" clip-rule="evenodd" d="M19.9968 20.5689C20.9869 21.3733 21.3584 21.312 23.2178 21.1879L40.747 20.1353C41.1188 20.1353 40.8097 19.7644 40.6857 19.7028L37.7745 17.5982C37.2166 17.1651 36.4735 16.6692 35.0491 16.7932L18.0755 18.0312C17.4564 18.0926 17.3328 18.4021 17.5793 18.6502L19.9968 20.5689ZM21.0492 24.6541V43.0979C21.0492 44.0891 21.5445 44.46 22.6594 44.3986L41.924 43.2839C43.0395 43.2226 43.1637 42.5408 43.1637 41.7356V23.4155C43.1637 22.6116 42.8545 22.1781 42.1717 22.2399L22.0399 23.4155C21.2969 23.4779 21.0492 23.8496 21.0492 24.6541ZM40.0672 25.6434C40.1907 26.201 40.0672 26.7581 39.5085 26.8208L38.5804 27.0057V40.6222C37.7745 41.0553 37.0313 41.3029 36.412 41.3029C35.4205 41.3029 35.1722 40.9932 34.4295 40.0654L28.358 30.5338V39.7559L30.2793 40.1894C30.2793 40.1894 30.2793 41.3029 28.7292 41.3029L24.456 41.5508C24.3318 41.3029 24.456 40.6845 24.8894 40.5606L26.0046 40.2516V28.0582L24.4563 27.9342C24.3321 27.3766 24.6414 26.5726 25.5092 26.5102L30.0934 26.2012L36.412 35.8569V27.3152L34.801 27.1303C34.6774 26.4486 35.1722 25.9537 35.7917 25.8923L40.0672 25.6434ZM16.6503 16.3602L34.3056 15.06C36.4737 14.8741 37.0315 14.9986 38.3942 15.9885L44.03 19.9496C44.9599 20.6308 45.2699 20.8162 45.2699 21.5588V43.2839C45.2699 44.6455 44.7739 45.4507 43.0398 45.5739L22.5367 46.812C21.2349 46.8741 20.6154 46.6886 19.9337 45.8215L15.7834 40.4368C15.0398 39.4455 14.7305 38.704 14.7305 37.8365V18.5257C14.7305 17.4123 15.2267 16.4835 16.6503 16.3602Z" fill="#404152"/>
</g>
</g>
<defs>
<clipPath id="clip0_118_137828">
<rect width="60" height="61" fill="white"/>
</clipPath>
</defs>
</svg>
