<svg width="60" height="61" viewBox="0 0 60 61" fill="none" xmlns="http://www.w3.org/2000/svg">
<g clip-path="url(#clip0_118_137835)">
<path opacity="0.2" d="M40 1.37402H20C9.23045 1.37402 0.5 10.1045 0.5 20.874V40.874C0.5 51.6436 9.23045 60.374 20 60.374H40C50.7696 60.374 59.5 51.6436 59.5 40.874V20.874C59.5 10.1045 50.7696 1.37402 40 1.37402Z" stroke="#404152"/>
<mask id="mask0_118_137835" style="mask-type:luminance" maskUnits="userSpaceOnUse" x="15" y="15" width="30" height="31">
<path d="M15 45.874L45 45.874L45 15.874L15 15.874L15 45.874Z" fill="white"/>
</mask>
<g mask="url(#mask0_118_137835)">
<path fill-rule="evenodd" clip-rule="evenodd" d="M34.0487 45.8002C34.4413 45.7998 34.83 45.7221 35.1926 45.5715C35.5552 45.4209 35.8846 45.2003 36.1619 44.9224C36.4393 44.6445 36.6592 44.3147 36.809 43.9518C36.9589 43.5889 37.0358 43.2 37.0354 42.8074C37.0357 42.4148 36.9588 42.026 36.8089 41.6632C36.659 41.3003 36.4391 40.9706 36.1617 40.6927C35.8844 40.4149 35.555 40.1944 35.1925 40.0438C34.8299 39.8932 34.4413 39.8155 34.0487 39.8152H31.062V42.8074C31.0616 43.2 31.1385 43.5889 31.2884 43.9518C31.4382 44.3147 31.6581 44.6445 31.9355 44.9224C32.2128 45.2003 32.5422 45.4209 32.9048 45.5715C33.2674 45.7221 33.6561 45.7998 34.0487 45.8002ZM34.0487 37.8196H42.0131C42.4057 37.8193 42.7944 37.7416 43.1569 37.591C43.5195 37.4404 43.8488 37.2199 44.1262 36.9421C44.4035 36.6642 44.6234 36.3345 44.7733 35.9716C44.9232 35.6088 45.0002 35.22 44.9998 34.8274C45.0002 34.4348 44.9233 34.0459 44.7735 33.683C44.6236 33.3201 44.4037 32.9903 44.1264 32.7124C43.849 32.4345 43.5197 32.2139 43.1571 32.0633C42.7945 31.9127 42.4058 31.835 42.0131 31.8346H34.0487C33.6561 31.835 33.2674 31.9127 32.9048 32.0633C32.5422 32.2139 32.2128 32.4345 31.9355 32.7124C31.6581 32.9903 31.4382 33.3201 31.2884 33.683C31.1385 34.0459 31.0616 34.4348 31.062 34.8274C31.0617 35.22 31.1386 35.6088 31.2885 35.9716C31.4384 36.3345 31.6583 36.6642 31.9356 36.9421C32.213 37.2199 32.5423 37.4404 32.9049 37.591C33.2674 37.7416 33.6561 37.8193 34.0487 37.8196Z" fill="#404152"/>
<path fill-rule="evenodd" clip-rule="evenodd" d="M15.1333 34.8274C15.1329 35.22 15.2099 35.6088 15.3598 35.9716C15.5097 36.3345 15.7296 36.6642 16.0069 36.9421C16.2842 37.2199 16.6136 37.4404 16.9762 37.591C17.3387 37.7416 17.7274 37.8193 18.12 37.8196C18.5125 37.8193 18.9012 37.7416 19.2638 37.591C19.6263 37.4404 19.9557 37.2199 20.233 36.9421C20.5103 36.6642 20.7302 36.3345 20.8801 35.9716C21.03 35.6088 21.107 35.22 21.1066 34.8274V31.8346H18.12C17.7273 31.835 17.3386 31.9127 16.976 32.0633C16.6134 32.2139 16.2841 32.4345 16.0067 32.7124C15.7294 32.9903 15.5095 33.3201 15.3596 33.683C15.2098 34.0459 15.1328 34.4348 15.1333 34.8274ZM23.0977 34.8274V42.8074C23.0973 43.2 23.1742 43.5889 23.3241 43.9518C23.4739 44.3147 23.6938 44.6445 23.9712 44.9224C24.2485 45.2003 24.5779 45.4209 24.9405 45.5715C25.3031 45.7221 25.6918 45.7998 26.0844 45.8002C26.477 45.7998 26.8657 45.7221 27.2283 45.5715C27.5909 45.4209 27.9203 45.2003 28.1976 44.9224C28.475 44.6445 28.6949 44.3147 28.8447 43.9518C28.9946 43.5889 29.0715 43.2 29.0711 42.8074V34.8274C29.0715 34.4348 28.9946 34.0459 28.8447 33.683C28.6949 33.3201 28.475 32.9903 28.1976 32.7124C27.9203 32.4345 27.5909 32.2139 27.2283 32.0633C26.8657 31.9127 26.477 31.835 26.0844 31.8346C25.6918 31.835 25.3031 31.9127 24.9405 32.0633C24.5779 32.2139 24.2485 32.4345 23.9712 32.7124C23.6938 32.9903 23.4739 33.3201 23.3241 33.683C23.1742 34.0459 23.0973 34.4348 23.0977 34.8274Z" fill="#404152"/>
<path fill-rule="evenodd" clip-rule="evenodd" d="M26.0844 15.874C25.6918 15.8744 25.3031 15.9521 24.9405 16.1027C24.5779 16.2533 24.2485 16.4739 23.9712 16.7518C23.6938 17.0297 23.4739 17.3595 23.3241 17.7224C23.1742 18.0853 23.0973 18.4742 23.0977 18.8668C23.0974 19.2594 23.1743 19.6482 23.3242 20.011C23.4741 20.3739 23.694 20.7036 23.9714 20.9815C24.2487 21.2593 24.578 21.4799 24.9406 21.6304C25.3032 21.781 25.6918 21.8587 26.0844 21.859H29.0711V18.8668C29.0715 18.4742 28.9946 18.0853 28.8447 17.7224C28.6949 17.3595 28.475 17.0297 28.1976 16.7518C27.9203 16.4739 27.5909 16.2533 27.2283 16.1027C26.8657 15.9521 26.477 15.8744 26.0844 15.874ZM26.0844 23.8546H18.12C17.7274 23.855 17.3387 23.9326 16.9762 24.0832C16.6136 24.2338 16.2842 24.4543 16.0069 24.7322C15.7296 25.01 15.5097 25.3398 15.3598 25.7026C15.2099 26.0654 15.1329 26.4542 15.1333 26.8468C15.1328 27.2394 15.2098 27.6283 15.3596 27.9912C15.5095 28.3541 15.7294 28.6839 16.0067 28.9619C16.2841 29.2398 16.6134 29.4603 16.976 29.6109C17.3386 29.7615 17.7273 29.8392 18.12 29.8396H26.0844C26.477 29.8392 26.8657 29.7615 27.2283 29.6109C27.5909 29.4603 27.9203 29.2398 28.1976 28.9619C28.475 28.6839 28.6949 28.3541 28.8447 27.9912C28.9946 27.6283 29.0715 27.2394 29.0711 26.8468C29.0714 26.4542 28.9945 26.0654 28.8446 25.7026C28.6947 25.3398 28.4748 25.01 28.1974 24.7322C27.9201 24.4543 27.5908 24.2338 27.2282 24.0832C26.8656 23.9326 26.477 23.855 26.0844 23.8546Z" fill="#404152"/>
<path fill-rule="evenodd" clip-rule="evenodd" d="M44.9998 26.8468C45.0002 26.4542 44.9232 26.0654 44.7733 25.7026C44.6234 25.3398 44.4035 25.01 44.1262 24.7322C43.8488 24.4543 43.5195 24.2338 43.1569 24.0832C42.7944 23.9326 42.4057 23.855 42.0131 23.8546C41.6206 23.855 41.2319 23.9326 40.8693 24.0832C40.5068 24.2338 40.1774 24.4543 39.9001 24.7322C39.6228 25.01 39.4029 25.3398 39.253 25.7026C39.1031 26.0654 39.0261 26.4542 39.0265 26.8468V29.8396H42.0131C42.4058 29.8392 42.7946 29.7615 43.1572 29.6109C43.5198 29.4602 43.8492 29.2396 44.1266 28.9617C44.4039 28.6837 44.6238 28.3538 44.7736 27.9908C44.9235 27.6279 45.0003 27.2394 44.9998 26.8468ZM37.0354 26.8468V18.8668C37.0358 18.4742 36.9589 18.0853 36.809 17.7224C36.6592 17.3595 36.4393 17.0297 36.1619 16.7518C35.8846 16.4739 35.5552 16.2533 35.1926 16.1027C34.83 15.9521 34.4413 15.8744 34.0487 15.874C33.6561 15.8744 33.2674 15.9521 32.9048 16.1027C32.5422 16.2533 32.2128 16.4739 31.9355 16.7518C31.6581 17.0297 31.4382 17.3595 31.2884 17.7224C31.1385 18.0853 31.0616 18.4742 31.062 18.8668V26.8463C31.0616 27.2389 31.1385 27.6278 31.2884 27.9907C31.4382 28.3536 31.6581 28.6834 31.9355 28.9613C32.2128 29.2392 32.5422 29.4598 32.9048 29.6104C33.2674 29.761 33.6561 29.8387 34.0487 29.839C34.4413 29.8387 34.83 29.761 35.1926 29.6104C35.5552 29.4598 35.8846 29.2392 36.1619 28.9613C36.4393 28.6834 36.6592 28.3536 36.809 27.9907C36.9589 27.6278 37.0358 27.2394 37.0354 26.8468Z" fill="#404152"/>
</g>
</g>
<defs>
<clipPath id="clip0_118_137835">
<rect width="60" height="61" fill="white"/>
</clipPath>
</defs>
</svg>
