<svg width="60" height="61" viewBox="0 0 60 61" fill="none" xmlns="http://www.w3.org/2000/svg">
<g clip-path="url(#clip0_118_137845)">
<path opacity="0.2" d="M40 1.37402H20C9.23045 1.37402 0.5 10.1045 0.5 20.874V40.874C0.5 51.6436 9.23045 60.374 20 60.374H40C50.7696 60.374 59.5 51.6436 59.5 40.874V20.874C59.5 10.1045 50.7696 1.37402 40 1.37402Z" stroke="#404152"/>
<path fill-rule="evenodd" clip-rule="evenodd" d="M28.5772 30.6798L36.4162 24.7548L36.4165 36.6048L28.5772 30.6798ZM20.8718 30.6798L17.0992 34.1289C16.5066 34.6754 16.5402 35.6214 17.1696 36.125C17.1696 36.125 18.0412 36.9361 18.3566 37.1613C18.8411 37.5069 19.4777 37.5464 19.9577 37.1948L24.3591 33.8681L34.9185 43.522C35.1871 43.8262 35.5758 43.8763 35.8899 43.7458L35.8898 43.7478L41.6964 41.0223C42.4798 40.7458 42.9999 40.0019 42.9999 39.1658V22.1937C42.9999 21.3576 42.4798 20.6137 41.6964 20.3372L35.8898 17.6117L35.8899 17.6139C35.5758 17.4834 35.1871 17.5334 34.9185 17.8376L24.3591 27.4916L19.9577 24.1648C19.4777 23.8132 18.8411 23.8527 18.3566 24.1984C18.0412 24.4235 17.1696 25.2346 17.1696 25.2346C16.5402 25.7382 16.5066 26.6843 17.0992 27.2307L20.8718 30.6798Z" fill="#404152"/>
</g>
<defs>
<clipPath id="clip0_118_137845">
<rect width="60" height="61" fill="white"/>
</clipPath>
</defs>
</svg>
